<mxfile host="Electron" modified="2024-06-06T11:08:39.148Z" agent="Mozilla/5.0 (Windows NT 10.0; Win64; x64) AppleWebKit/537.36 (KHTML, like Gecko) draw.io/21.3.7 Chrome/112.0.5615.204 Electron/24.5.0 Safari/537.36" etag="qU0qI3YjGtrXVJt_zsC7" version="21.3.7" type="device">
  <diagram id="lZtMAotlkgFh4TRdy8GD" name="Seite-1">
    <mxGraphModel dx="810" dy="555" grid="0" gridSize="10" guides="1" tooltips="1" connect="1" arrows="1" fold="1" page="1" pageScale="1" pageWidth="827" pageHeight="1169" math="0" shadow="0">
      <root>
        <mxCell id="0" />
        <mxCell id="1" parent="0" />
        <mxCell id="0Lt53XmSsZHqnJwjP2_6-42" value="" style="endArrow=classic;html=1;rounded=0;fontSize=19;strokeWidth=2;dashed=1;" parent="1" edge="1">
          <mxGeometry width="50" height="50" relative="1" as="geometry">
            <mxPoint x="366.5" y="428" as="sourcePoint" />
            <mxPoint x="366.47" y="518" as="targetPoint" />
          </mxGeometry>
        </mxCell>
        <mxCell id="0Lt53XmSsZHqnJwjP2_6-43" value="Q&lt;sub&gt;loss&lt;/sub&gt;" style="edgeLabel;html=1;align=center;verticalAlign=middle;resizable=0;points=[];fontSize=19;" parent="0Lt53XmSsZHqnJwjP2_6-42" vertex="1" connectable="0">
          <mxGeometry x="-0.4466" y="-1" relative="1" as="geometry">
            <mxPoint x="46" y="27" as="offset" />
          </mxGeometry>
        </mxCell>
        <mxCell id="0Lt53XmSsZHqnJwjP2_6-31" value="&lt;font style=&quot;font-size: 19px;&quot;&gt;Hydrogen Electrolyser (HEL)&lt;/font&gt;" style="rounded=0;whiteSpace=wrap;html=1;strokeWidth=2;fillColor=#FFFFFF;" parent="1" vertex="1">
          <mxGeometry x="253.02999999999997" y="288" width="230" height="162" as="geometry" />
        </mxCell>
        <mxCell id="0Lt53XmSsZHqnJwjP2_6-34" value="" style="endArrow=classic;html=1;rounded=0;fontSize=19;entryX=-0.009;entryY=0.171;entryDx=0;entryDy=0;entryPerimeter=0;strokeWidth=2;" parent="1" edge="1">
          <mxGeometry width="50" height="50" relative="1" as="geometry">
            <mxPoint x="448.06999999999994" y="218" as="sourcePoint" />
            <mxPoint x="448" y="288" as="targetPoint" />
          </mxGeometry>
        </mxCell>
        <mxCell id="0Lt53XmSsZHqnJwjP2_6-35" value="P&lt;sub&gt;el&lt;/sub&gt;" style="edgeLabel;html=1;align=center;verticalAlign=middle;resizable=0;points=[];fontSize=19;" parent="0Lt53XmSsZHqnJwjP2_6-34" vertex="1" connectable="0">
          <mxGeometry x="-0.4466" y="-1" relative="1" as="geometry">
            <mxPoint x="-32" y="13" as="offset" />
          </mxGeometry>
        </mxCell>
        <mxCell id="0Lt53XmSsZHqnJwjP2_6-38" value="" style="endArrow=classic;html=1;rounded=0;fontSize=19;strokeWidth=2;" parent="1" edge="1">
          <mxGeometry width="50" height="50" relative="1" as="geometry">
            <mxPoint x="483.03" y="429.87999999999994" as="sourcePoint" />
            <mxPoint x="632" y="430.32" as="targetPoint" />
          </mxGeometry>
        </mxCell>
        <mxCell id="0Lt53XmSsZHqnJwjP2_6-39" value="m&lt;sub&gt;O2,out&lt;/sub&gt;" style="edgeLabel;html=1;align=center;verticalAlign=middle;resizable=0;points=[];fontSize=19;" parent="0Lt53XmSsZHqnJwjP2_6-38" vertex="1" connectable="0">
          <mxGeometry x="-0.4466" y="-1" relative="1" as="geometry">
            <mxPoint x="34" y="-17" as="offset" />
          </mxGeometry>
        </mxCell>
        <mxCell id="0Lt53XmSsZHqnJwjP2_6-47" value="E&lt;sub&gt;H2&lt;/sub&gt;" style="text;html=1;strokeColor=none;fillColor=none;align=center;verticalAlign=middle;whiteSpace=wrap;rounded=0;fontSize=19;" parent="1" vertex="1">
          <mxGeometry x="510" y="346" width="60" height="30" as="geometry" />
        </mxCell>
        <mxCell id="0Lt53XmSsZHqnJwjP2_6-49" value=".&lt;br&gt;" style="text;html=1;strokeColor=none;fillColor=none;align=center;verticalAlign=middle;whiteSpace=wrap;rounded=0;fontSize=19;" parent="1" vertex="1">
          <mxGeometry x="33" y="314" width="60" height="30" as="geometry" />
        </mxCell>
        <mxCell id="0Lt53XmSsZHqnJwjP2_6-46" value="Q&lt;sub&gt;waste heat&lt;/sub&gt;" style="endArrow=classic;html=1;rounded=0;strokeColor=#000000;fontSize=19;strokeWidth=2;" parent="1" edge="1">
          <mxGeometry x="0.625" y="-18" width="50" height="50" relative="1" as="geometry">
            <mxPoint x="172" y="367.2" as="sourcePoint" />
            <mxPoint x="85" y="367.2" as="targetPoint" />
            <mxPoint as="offset" />
          </mxGeometry>
        </mxCell>
        <mxCell id="0Lt53XmSsZHqnJwjP2_6-52" value=".&lt;br&gt;" style="text;html=1;strokeColor=none;fillColor=none;align=center;verticalAlign=middle;whiteSpace=wrap;rounded=0;fontSize=19;" parent="1" vertex="1">
          <mxGeometry x="505" y="374" width="60" height="47" as="geometry" />
        </mxCell>
        <mxCell id="0Lt53XmSsZHqnJwjP2_6-53" value="" style="endArrow=classic;html=1;rounded=0;fontSize=19;entryX=-0.009;entryY=0.171;entryDx=0;entryDy=0;entryPerimeter=0;fillColor=#dae8fc;strokeColor=#0A34BF;strokeWidth=2;" parent="1" edge="1">
          <mxGeometry width="50" height="50" relative="1" as="geometry">
            <mxPoint x="111" y="321" as="sourcePoint" />
            <mxPoint x="253.02999999999997" y="321" as="targetPoint" />
          </mxGeometry>
        </mxCell>
        <mxCell id="0Lt53XmSsZHqnJwjP2_6-54" value="T&lt;sub&gt;cooling,in&lt;/sub&gt;" style="edgeLabel;html=1;align=center;verticalAlign=middle;resizable=0;points=[];fontSize=19;" parent="0Lt53XmSsZHqnJwjP2_6-53" vertex="1" connectable="0">
          <mxGeometry x="-0.4466" y="-1" relative="1" as="geometry">
            <mxPoint x="31" y="-17" as="offset" />
          </mxGeometry>
        </mxCell>
        <mxCell id="0Lt53XmSsZHqnJwjP2_6-55" value="" style="endArrow=classic;html=1;rounded=0;fontSize=19;strokeColor=#FF170F;strokeWidth=2;" parent="1" edge="1">
          <mxGeometry width="50" height="50" relative="1" as="geometry">
            <mxPoint x="250.96000000000004" y="419" as="sourcePoint" />
            <mxPoint x="111" y="420" as="targetPoint" />
          </mxGeometry>
        </mxCell>
        <mxCell id="0Lt53XmSsZHqnJwjP2_6-56" value="T&lt;sub&gt;cooling,out&lt;/sub&gt;" style="edgeLabel;html=1;align=center;verticalAlign=middle;resizable=0;points=[];fontSize=19;" parent="0Lt53XmSsZHqnJwjP2_6-55" vertex="1" connectable="0">
          <mxGeometry x="-0.4466" y="-1" relative="1" as="geometry">
            <mxPoint x="-31" y="-15" as="offset" />
          </mxGeometry>
        </mxCell>
        <mxCell id="0Lt53XmSsZHqnJwjP2_6-61" value="&lt;font color=&quot;#000000&quot;&gt;power electronics&lt;/font&gt;" style="rounded=0;whiteSpace=wrap;html=1;fontSize=16;fontColor=#FF4A4A;" parent="1" vertex="1">
          <mxGeometry x="395" y="155" width="104" height="60" as="geometry" />
        </mxCell>
        <mxCell id="0Lt53XmSsZHqnJwjP2_6-62" value="" style="endArrow=classic;html=1;rounded=0;strokeColor=#000000;strokeWidth=2;fontSize=16;entryX=0.5;entryY=0;entryDx=0;entryDy=0;exitX=0.5;exitY=1;exitDx=0;exitDy=0;" parent="1" edge="1">
          <mxGeometry width="50" height="50" relative="1" as="geometry">
            <mxPoint x="446.5799999999999" y="101" as="sourcePoint" />
            <mxPoint x="446.5799999999999" y="156" as="targetPoint" />
            <Array as="points" />
          </mxGeometry>
        </mxCell>
        <mxCell id="0Lt53XmSsZHqnJwjP2_6-63" value="&lt;span style=&quot;font-size: 16px;&quot;&gt;P&lt;sub style=&quot;font-size: 16px;&quot;&gt;el,supply&lt;/sub&gt;&lt;/span&gt;" style="text;html=1;strokeColor=none;fillColor=none;align=center;verticalAlign=middle;whiteSpace=wrap;rounded=0;fontSize=16;" parent="1" vertex="1">
          <mxGeometry x="417" y="65" width="60" height="30" as="geometry" />
        </mxCell>
        <mxCell id="0Lt53XmSsZHqnJwjP2_6-64" value="" style="endArrow=classic;html=1;rounded=0;strokeColor=#000000;strokeWidth=2;fontSize=16;exitX=1;exitY=0.5;exitDx=0;exitDy=0;dashed=1;" parent="1" source="0Lt53XmSsZHqnJwjP2_6-61" edge="1">
          <mxGeometry width="50" height="50" relative="1" as="geometry">
            <mxPoint x="618.9999999999999" y="145" as="sourcePoint" />
            <mxPoint x="559" y="185" as="targetPoint" />
            <Array as="points">
              <mxPoint x="529" y="185" />
            </Array>
          </mxGeometry>
        </mxCell>
        <mxCell id="0Lt53XmSsZHqnJwjP2_6-65" value="&lt;span style=&quot;font-size: 16px;&quot;&gt;P&lt;sub style=&quot;font-size: 16px;&quot;&gt;el,loss&lt;/sub&gt;&lt;/span&gt;" style="text;html=1;strokeColor=none;fillColor=none;align=center;verticalAlign=middle;whiteSpace=wrap;rounded=0;fontSize=16;" parent="1" vertex="1">
          <mxGeometry x="565" y="170" width="60" height="30" as="geometry" />
        </mxCell>
        <mxCell id="0Lt53XmSsZHqnJwjP2_6-66" value=".&lt;br&gt;" style="text;html=1;strokeColor=none;fillColor=none;align=center;verticalAlign=middle;whiteSpace=wrap;rounded=0;fontSize=19;" parent="1" vertex="1">
          <mxGeometry x="368" y="417" width="60" height="86" as="geometry" />
        </mxCell>
        <mxCell id="9B9aA9WujrgHKCgmpcFo-3" value="&lt;font style=&quot;font-size: 19px;&quot;&gt;&lt;span style=&quot;color: rgb(0, 0, 0); font-family: Helvetica; font-style: normal; font-variant-ligatures: normal; font-variant-caps: normal; font-weight: 400; letter-spacing: normal; orphans: 2; text-align: center; text-indent: 0px; text-transform: none; widows: 2; word-spacing: 0px; -webkit-text-stroke-width: 0px; background-color: rgb(255, 255, 255); text-decoration-thickness: initial; text-decoration-style: initial; text-decoration-color: initial; float: none; display: inline !important;&quot;&gt;m&lt;/span&gt;&lt;sub style=&quot;color: rgb(0, 0, 0); font-family: Helvetica; font-style: normal; font-variant-ligatures: normal; font-variant-caps: normal; font-weight: 400; letter-spacing: normal; orphans: 2; text-align: center; text-indent: 0px; text-transform: none; widows: 2; word-spacing: 0px; -webkit-text-stroke-width: 0px; text-decoration-thickness: initial; text-decoration-style: initial; text-decoration-color: initial;&quot;&gt;H2O,in&lt;/sub&gt;&lt;/font&gt;" style="text;whiteSpace=wrap;html=1;fontSize=19;" parent="1" vertex="1">
          <mxGeometry x="265" y="62" width="90" height="50" as="geometry" />
        </mxCell>
        <mxCell id="9B9aA9WujrgHKCgmpcFo-4" value="&lt;font color=&quot;#000000&quot;&gt;water processing&lt;br&gt;&lt;/font&gt;" style="rounded=0;whiteSpace=wrap;html=1;fontSize=16;fontColor=#FF4A4A;" parent="1" vertex="1">
          <mxGeometry x="253.02999999999997" y="155" width="104" height="60" as="geometry" />
        </mxCell>
        <mxCell id="9B9aA9WujrgHKCgmpcFo-5" value="" style="endArrow=classic;html=1;rounded=0;strokeColor=#000000;strokeWidth=2;fontSize=16;entryX=0.5;entryY=0;entryDx=0;entryDy=0;exitX=0.5;exitY=1;exitDx=0;exitDy=0;" parent="1" edge="1">
          <mxGeometry width="50" height="50" relative="1" as="geometry">
            <mxPoint x="304.6099999999999" y="100.99999999999989" as="sourcePoint" />
            <mxPoint x="304.6099999999999" y="155.9999999999999" as="targetPoint" />
            <Array as="points" />
          </mxGeometry>
        </mxCell>
        <mxCell id="9B9aA9WujrgHKCgmpcFo-6" value="" style="endArrow=classic;html=1;rounded=0;fontSize=19;entryX=-0.009;entryY=0.171;entryDx=0;entryDy=0;entryPerimeter=0;strokeWidth=2;" parent="1" edge="1">
          <mxGeometry width="50" height="50" relative="1" as="geometry">
            <mxPoint x="305.06999999999994" y="216" as="sourcePoint" />
            <mxPoint x="305" y="286" as="targetPoint" />
          </mxGeometry>
        </mxCell>
        <mxCell id="9B9aA9WujrgHKCgmpcFo-8" value="" style="endArrow=classic;html=1;rounded=0;strokeColor=#000000;strokeWidth=2;fontSize=16;exitX=1;exitY=0.5;exitDx=0;exitDy=0;dashed=1;" parent="1" edge="1">
          <mxGeometry width="50" height="50" relative="1" as="geometry">
            <mxPoint x="253.02999999999997" y="185" as="sourcePoint" />
            <mxPoint x="194" y="185" as="targetPoint" />
            <Array as="points" />
          </mxGeometry>
        </mxCell>
        <mxCell id="9B9aA9WujrgHKCgmpcFo-11" value="&lt;div style=&quot;text-align: center;&quot;&gt;&lt;span style=&quot;background-color: rgb(255, 255, 255);&quot;&gt;water cleaning losses&lt;/span&gt;&lt;/div&gt;" style="text;whiteSpace=wrap;html=1;fontSize=16;" parent="1" vertex="1">
          <mxGeometry x="100" y="150" width="90" height="50" as="geometry" />
        </mxCell>
        <mxCell id="9B9aA9WujrgHKCgmpcFo-12" value="&lt;font style=&quot;font-size: 19px;&quot;&gt;&lt;span style=&quot;color: rgb(0, 0, 0); font-family: Helvetica; font-style: normal; font-variant-ligatures: normal; font-variant-caps: normal; font-weight: 400; letter-spacing: normal; orphans: 2; text-align: center; text-indent: 0px; text-transform: none; widows: 2; word-spacing: 0px; -webkit-text-stroke-width: 0px; background-color: rgb(255, 255, 255); text-decoration-thickness: initial; text-decoration-style: initial; text-decoration-color: initial; float: none; display: inline !important;&quot;&gt;m&lt;/span&gt;&lt;sub style=&quot;color: rgb(0, 0, 0); font-family: Helvetica; font-style: normal; font-variant-ligatures: normal; font-variant-caps: normal; font-weight: 400; letter-spacing: normal; orphans: 2; text-align: center; text-indent: 0px; text-transform: none; widows: 2; word-spacing: 0px; -webkit-text-stroke-width: 0px; text-decoration-thickness: initial; text-decoration-style: initial; text-decoration-color: initial;&quot;&gt;H2,out&lt;/sub&gt;&lt;/font&gt;" style="text;whiteSpace=wrap;html=1;fontSize=19;verticalAlign=middle;" parent="1" vertex="1">
          <mxGeometry x="704" y="292" width="95" height="50" as="geometry" />
        </mxCell>
        <mxCell id="9B9aA9WujrgHKCgmpcFo-14" value="&lt;font color=&quot;#000000&quot;&gt;H&lt;sub&gt;2&lt;/sub&gt;&lt;br&gt;processing&lt;/font&gt;" style="rounded=0;whiteSpace=wrap;html=1;fontSize=16;fontColor=#FF4A4A;" parent="1" vertex="1">
          <mxGeometry x="590" y="312" width="104" height="60" as="geometry" />
        </mxCell>
        <mxCell id="9B9aA9WujrgHKCgmpcFo-17" value="&lt;font style=&quot;font-size: 19px;&quot;&gt;E&lt;sub&gt;H2,out&lt;/sub&gt;&lt;/font&gt;" style="text;html=1;strokeColor=none;fillColor=none;align=center;verticalAlign=middle;whiteSpace=wrap;rounded=0;fontSize=19;" parent="1" vertex="1">
          <mxGeometry x="708" y="346" width="60" height="30" as="geometry" />
        </mxCell>
        <mxCell id="9B9aA9WujrgHKCgmpcFo-24" value=".&lt;br&gt;" style="text;html=1;strokeColor=none;fillColor=none;align=center;verticalAlign=middle;whiteSpace=wrap;rounded=0;fontSize=19;" parent="1" vertex="1">
          <mxGeometry x="499" y="327" width="60" height="30" as="geometry" />
        </mxCell>
        <mxCell id="9B9aA9WujrgHKCgmpcFo-27" value="" style="endArrow=classic;html=1;rounded=0;fontSize=19;strokeWidth=2;" parent="1" edge="1">
          <mxGeometry width="50" height="50" relative="1" as="geometry">
            <mxPoint x="694.9999999999998" y="338.7200000000001" as="sourcePoint" />
            <mxPoint x="810" y="339" as="targetPoint" />
          </mxGeometry>
        </mxCell>
        <mxCell id="9B9aA9WujrgHKCgmpcFo-29" value=".&lt;br&gt;" style="text;html=1;strokeColor=none;fillColor=none;align=center;verticalAlign=middle;whiteSpace=wrap;rounded=0;fontSize=19;" parent="1" vertex="1">
          <mxGeometry x="685" y="327" width="60" height="30" as="geometry" />
        </mxCell>
        <mxCell id="9B9aA9WujrgHKCgmpcFo-30" value="" style="endArrow=classic;html=1;rounded=0;strokeColor=#000000;strokeWidth=2;fontSize=16;exitX=0.5;exitY=0;exitDx=0;exitDy=0;dashed=1;" parent="1" source="9B9aA9WujrgHKCgmpcFo-14" edge="1">
          <mxGeometry width="50" height="50" relative="1" as="geometry">
            <mxPoint x="527" y="207" as="sourcePoint" />
            <mxPoint x="642" y="272" as="targetPoint" />
          </mxGeometry>
        </mxCell>
        <mxCell id="9B9aA9WujrgHKCgmpcFo-31" value="H&lt;sub&gt;2 &lt;br&gt;&lt;/sub&gt;cleaning losses" style="text;html=1;strokeColor=none;fillColor=none;align=center;verticalAlign=middle;whiteSpace=wrap;rounded=0;fontSize=16;" parent="1" vertex="1">
          <mxGeometry x="572" y="232" width="138" height="30" as="geometry" />
        </mxCell>
        <mxCell id="9B9aA9WujrgHKCgmpcFo-32" value="" style="endArrow=classic;html=1;rounded=0;fontSize=19;strokeWidth=2;entryX=-0.019;entryY=0.487;entryDx=0;entryDy=0;entryPerimeter=0;" parent="1" target="9B9aA9WujrgHKCgmpcFo-14" edge="1">
          <mxGeometry width="50" height="50" relative="1" as="geometry">
            <mxPoint x="483.03" y="341.05999999999995" as="sourcePoint" />
            <mxPoint x="580" y="360" as="targetPoint" />
          </mxGeometry>
        </mxCell>
        <mxCell id="9B9aA9WujrgHKCgmpcFo-33" value="m&lt;sub&gt;H2&lt;/sub&gt;" style="edgeLabel;html=1;align=center;verticalAlign=middle;resizable=0;points=[];fontSize=19;" parent="9B9aA9WujrgHKCgmpcFo-32" vertex="1" connectable="0">
          <mxGeometry x="-0.4466" y="-1" relative="1" as="geometry">
            <mxPoint x="28" y="-21" as="offset" />
          </mxGeometry>
        </mxCell>
        <mxCell id="0Lt53XmSsZHqnJwjP2_6-51" value=".&lt;br&gt;" style="text;html=1;strokeColor=none;fillColor=none;align=center;verticalAlign=middle;whiteSpace=wrap;rounded=0;fontSize=19;" parent="1" vertex="1">
          <mxGeometry x="502" y="290" width="60" height="30" as="geometry" />
        </mxCell>
        <mxCell id="0Lt53XmSsZHqnJwjP2_6-50" value=".&lt;br&gt;" style="text;html=1;strokeColor=none;fillColor=none;align=center;verticalAlign=middle;whiteSpace=wrap;rounded=0;fontSize=19;" parent="1" vertex="1">
          <mxGeometry x="245" y="49" width="60" height="30" as="geometry" />
        </mxCell>
        <mxCell id="9B9aA9WujrgHKCgmpcFo-13" value=".&lt;br&gt;" style="text;html=1;strokeColor=none;fillColor=none;align=center;verticalAlign=middle;whiteSpace=wrap;rounded=0;fontSize=19;" parent="1" vertex="1">
          <mxGeometry x="685" y="287" width="60" height="30" as="geometry" />
        </mxCell>
      </root>
    </mxGraphModel>
  </diagram>
</mxfile>
